# xmcd CD database file
#
# Track frame offsets:
#	150
#	10114
#	26282
#	36892
#	53302
#	65166
#	82492
#	98205
#	110728
#	123512
#
# Disc length: 1869 seconds
#
# Revision: 1
# Processed by: cddbd v1.5.2PL0 Copyright (c) Steve Scherf et al.
# Submitted via: CDex 1.70beta2
#
DISCID=81074b0a
DTITLE=Foggy Roots - 東方刻々滔-彩-
DYEAR=2007
DGENRE=東方アレンジ系
TTITLE0=刻々滔
TTITLE1=専念弦奏今日
TTITLE2=キカイジカケエイキュウキカン
TTITLE3=朧月夜の処刑人形
TTITLE4=時を駆ける少女だぜ
TTITLE5=電撃HtP
TTITLE6=気まぐれ⑨ぶりざーど
TTITLE7=鎌使いの夜
TTITLE8=失踪紅月曲
TTITLE9=彩の変辺
EXTD=YEAR: 2007
EXTT0=
EXTT1=
EXTT2=
EXTT3=
EXTT4=
EXTT5=
EXTT6=
EXTT7=
EXTT8=
EXTT9=
PLAYORDER=
